<mxfile host="app.diagrams.net" agent="Mozilla/5.0 (Windows NT 10.0; Win64; x64) AppleWebKit/537.36 (KHTML, like Gecko) Chrome/134.0.0.0 Safari/537.36" version="26.2.3" pages="2">
  <diagram name="Caso de Uso" id="qELnpYCCV7NWTx2NBShC">
    <mxGraphModel dx="1428" dy="777" grid="1" gridSize="10" guides="1" tooltips="1" connect="1" arrows="1" fold="1" page="1" pageScale="1" pageWidth="827" pageHeight="1169" math="0" shadow="0">
      <root>
        <mxCell id="0" />
        <mxCell id="1" parent="0" />
        <mxCell id="Rv_EUH6xtnjwmVDJbV0c-5" style="edgeStyle=orthogonalEdgeStyle;rounded=0;orthogonalLoop=1;jettySize=auto;html=1;exitX=0.5;exitY=0;exitDx=0;exitDy=0;exitPerimeter=0;entryX=0.5;entryY=1;entryDx=0;entryDy=0;" edge="1" parent="1" source="Rv_EUH6xtnjwmVDJbV0c-1" target="Rv_EUH6xtnjwmVDJbV0c-2">
          <mxGeometry relative="1" as="geometry" />
        </mxCell>
        <mxCell id="Rv_EUH6xtnjwmVDJbV0c-6" style="edgeStyle=orthogonalEdgeStyle;rounded=0;orthogonalLoop=1;jettySize=auto;html=1;exitX=0.5;exitY=0;exitDx=0;exitDy=0;exitPerimeter=0;entryX=0.5;entryY=1;entryDx=0;entryDy=0;" edge="1" parent="1" source="Rv_EUH6xtnjwmVDJbV0c-1" target="Rv_EUH6xtnjwmVDJbV0c-3">
          <mxGeometry relative="1" as="geometry" />
        </mxCell>
        <mxCell id="Rv_EUH6xtnjwmVDJbV0c-1" value="Cliente" style="shape=umlActor;verticalLabelPosition=bottom;verticalAlign=top;html=1;outlineConnect=0;" vertex="1" parent="1">
          <mxGeometry x="426" y="280" width="60" height="120" as="geometry" />
        </mxCell>
        <mxCell id="Rv_EUH6xtnjwmVDJbV0c-2" value="Abrir Chamados" style="ellipse;whiteSpace=wrap;html=1;" vertex="1" parent="1">
          <mxGeometry x="306" y="160" width="120" height="80" as="geometry" />
        </mxCell>
        <mxCell id="Rv_EUH6xtnjwmVDJbV0c-3" value="Acompanhar Chamados" style="ellipse;whiteSpace=wrap;html=1;" vertex="1" parent="1">
          <mxGeometry x="486" y="160" width="120" height="80" as="geometry" />
        </mxCell>
        <mxCell id="Rv_EUH6xtnjwmVDJbV0c-11" style="edgeStyle=orthogonalEdgeStyle;rounded=0;orthogonalLoop=1;jettySize=auto;html=1;exitX=0.5;exitY=0;exitDx=0;exitDy=0;exitPerimeter=0;entryX=0.5;entryY=1;entryDx=0;entryDy=0;" edge="1" parent="1" source="Rv_EUH6xtnjwmVDJbV0c-8" target="Rv_EUH6xtnjwmVDJbV0c-9">
          <mxGeometry relative="1" as="geometry" />
        </mxCell>
        <mxCell id="Rv_EUH6xtnjwmVDJbV0c-12" style="edgeStyle=orthogonalEdgeStyle;rounded=0;orthogonalLoop=1;jettySize=auto;html=1;exitX=0.5;exitY=0;exitDx=0;exitDy=0;exitPerimeter=0;entryX=0.5;entryY=1;entryDx=0;entryDy=0;" edge="1" parent="1" source="Rv_EUH6xtnjwmVDJbV0c-8" target="Rv_EUH6xtnjwmVDJbV0c-10">
          <mxGeometry relative="1" as="geometry" />
        </mxCell>
        <mxCell id="Rv_EUH6xtnjwmVDJbV0c-8" value="Técnico" style="shape=umlActor;verticalLabelPosition=bottom;verticalAlign=top;html=1;outlineConnect=0;" vertex="1" parent="1">
          <mxGeometry x="810" y="280" width="60" height="120" as="geometry" />
        </mxCell>
        <mxCell id="Rv_EUH6xtnjwmVDJbV0c-9" value="Resolver Chamadas" style="ellipse;whiteSpace=wrap;html=1;" vertex="1" parent="1">
          <mxGeometry x="690" y="170" width="120" height="80" as="geometry" />
        </mxCell>
        <mxCell id="Rv_EUH6xtnjwmVDJbV0c-10" value="Atualizar Chamados" style="ellipse;whiteSpace=wrap;html=1;" vertex="1" parent="1">
          <mxGeometry x="870" y="170" width="120" height="80" as="geometry" />
        </mxCell>
        <mxCell id="Rv_EUH6xtnjwmVDJbV0c-16" style="edgeStyle=orthogonalEdgeStyle;rounded=0;orthogonalLoop=1;jettySize=auto;html=1;exitX=0.5;exitY=0;exitDx=0;exitDy=0;exitPerimeter=0;entryX=0.5;entryY=1;entryDx=0;entryDy=0;" edge="1" parent="1" source="Rv_EUH6xtnjwmVDJbV0c-13" target="Rv_EUH6xtnjwmVDJbV0c-14">
          <mxGeometry relative="1" as="geometry" />
        </mxCell>
        <mxCell id="Rv_EUH6xtnjwmVDJbV0c-17" style="edgeStyle=orthogonalEdgeStyle;rounded=0;orthogonalLoop=1;jettySize=auto;html=1;exitX=0.5;exitY=0;exitDx=0;exitDy=0;exitPerimeter=0;entryX=0.5;entryY=1;entryDx=0;entryDy=0;" edge="1" parent="1" source="Rv_EUH6xtnjwmVDJbV0c-13" target="Rv_EUH6xtnjwmVDJbV0c-15">
          <mxGeometry relative="1" as="geometry" />
        </mxCell>
        <mxCell id="Rv_EUH6xtnjwmVDJbV0c-13" value="Técnico" style="shape=umlActor;verticalLabelPosition=bottom;verticalAlign=top;html=1;outlineConnect=0;" vertex="1" parent="1">
          <mxGeometry x="1170" y="280" width="60" height="120" as="geometry" />
        </mxCell>
        <mxCell id="Rv_EUH6xtnjwmVDJbV0c-14" value="Atribuir tarefas" style="ellipse;whiteSpace=wrap;html=1;" vertex="1" parent="1">
          <mxGeometry x="1050" y="170" width="120" height="80" as="geometry" />
        </mxCell>
        <mxCell id="Rv_EUH6xtnjwmVDJbV0c-15" value="Gerar Relatóris" style="ellipse;whiteSpace=wrap;html=1;" vertex="1" parent="1">
          <mxGeometry x="1230" y="170" width="120" height="80" as="geometry" />
        </mxCell>
      </root>
    </mxGraphModel>
  </diagram>
  <diagram id="3vtqq2UeruJY1x5w8ZWO" name="Classes">
    <mxGraphModel dx="1428" dy="777" grid="1" gridSize="10" guides="1" tooltips="1" connect="1" arrows="1" fold="1" page="1" pageScale="1" pageWidth="827" pageHeight="1169" math="0" shadow="0">
      <root>
        <mxCell id="0" />
        <mxCell id="1" parent="0" />
        <mxCell id="L1UJmGsl1rREGQIw6UwZ-1" value="Chamado" style="swimlane;fontStyle=0;childLayout=stackLayout;horizontal=1;startSize=26;fillColor=none;horizontalStack=0;resizeParent=1;resizeParentMax=0;resizeLast=0;collapsible=1;marginBottom=0;whiteSpace=wrap;html=1;" vertex="1" parent="1">
          <mxGeometry x="190" y="270" width="140" height="104" as="geometry" />
        </mxCell>
        <mxCell id="L1UJmGsl1rREGQIw6UwZ-2" value="+ID: Int" style="text;strokeColor=none;fillColor=none;align=left;verticalAlign=top;spacingLeft=4;spacingRight=4;overflow=hidden;rotatable=0;points=[[0,0.5],[1,0.5]];portConstraint=eastwest;whiteSpace=wrap;html=1;" vertex="1" parent="L1UJmGsl1rREGQIw6UwZ-1">
          <mxGeometry y="26" width="140" height="26" as="geometry" />
        </mxCell>
        <mxCell id="L1UJmGsl1rREGQIw6UwZ-3" value="+Descrição: String" style="text;strokeColor=none;fillColor=none;align=left;verticalAlign=top;spacingLeft=4;spacingRight=4;overflow=hidden;rotatable=0;points=[[0,0.5],[1,0.5]];portConstraint=eastwest;whiteSpace=wrap;html=1;" vertex="1" parent="L1UJmGsl1rREGQIw6UwZ-1">
          <mxGeometry y="52" width="140" height="26" as="geometry" />
        </mxCell>
        <mxCell id="L1UJmGsl1rREGQIw6UwZ-4" value="+Status: String" style="text;strokeColor=none;fillColor=none;align=left;verticalAlign=top;spacingLeft=4;spacingRight=4;overflow=hidden;rotatable=0;points=[[0,0.5],[1,0.5]];portConstraint=eastwest;whiteSpace=wrap;html=1;" vertex="1" parent="L1UJmGsl1rREGQIw6UwZ-1">
          <mxGeometry y="78" width="140" height="26" as="geometry" />
        </mxCell>
        <mxCell id="L1UJmGsl1rREGQIw6UwZ-6" value="Cliente" style="swimlane;fontStyle=0;childLayout=stackLayout;horizontal=1;startSize=26;fillColor=none;horizontalStack=0;resizeParent=1;resizeParentMax=0;resizeLast=0;collapsible=1;marginBottom=0;whiteSpace=wrap;html=1;" vertex="1" parent="1">
          <mxGeometry x="400" y="283" width="140" height="78" as="geometry" />
        </mxCell>
        <mxCell id="L1UJmGsl1rREGQIw6UwZ-7" value="+ID: Int" style="text;strokeColor=none;fillColor=none;align=left;verticalAlign=top;spacingLeft=4;spacingRight=4;overflow=hidden;rotatable=0;points=[[0,0.5],[1,0.5]];portConstraint=eastwest;whiteSpace=wrap;html=1;" vertex="1" parent="L1UJmGsl1rREGQIw6UwZ-6">
          <mxGeometry y="26" width="140" height="26" as="geometry" />
        </mxCell>
        <mxCell id="L1UJmGsl1rREGQIw6UwZ-8" value="+Nome: String" style="text;strokeColor=none;fillColor=none;align=left;verticalAlign=top;spacingLeft=4;spacingRight=4;overflow=hidden;rotatable=0;points=[[0,0.5],[1,0.5]];portConstraint=eastwest;whiteSpace=wrap;html=1;" vertex="1" parent="L1UJmGsl1rREGQIw6UwZ-6">
          <mxGeometry y="52" width="140" height="26" as="geometry" />
        </mxCell>
        <mxCell id="L1UJmGsl1rREGQIw6UwZ-10" value="Técnico" style="swimlane;fontStyle=0;childLayout=stackLayout;horizontal=1;startSize=26;fillColor=none;horizontalStack=0;resizeParent=1;resizeParentMax=0;resizeLast=0;collapsible=1;marginBottom=0;whiteSpace=wrap;html=1;" vertex="1" parent="1">
          <mxGeometry x="600" y="280" width="140" height="78" as="geometry" />
        </mxCell>
        <mxCell id="L1UJmGsl1rREGQIw6UwZ-11" value="+ID: Int" style="text;strokeColor=none;fillColor=none;align=left;verticalAlign=top;spacingLeft=4;spacingRight=4;overflow=hidden;rotatable=0;points=[[0,0.5],[1,0.5]];portConstraint=eastwest;whiteSpace=wrap;html=1;" vertex="1" parent="L1UJmGsl1rREGQIw6UwZ-10">
          <mxGeometry y="26" width="140" height="26" as="geometry" />
        </mxCell>
        <mxCell id="L1UJmGsl1rREGQIw6UwZ-12" value="+Especialidade: String" style="text;strokeColor=none;fillColor=none;align=left;verticalAlign=top;spacingLeft=4;spacingRight=4;overflow=hidden;rotatable=0;points=[[0,0.5],[1,0.5]];portConstraint=eastwest;whiteSpace=wrap;html=1;" vertex="1" parent="L1UJmGsl1rREGQIw6UwZ-10">
          <mxGeometry y="52" width="140" height="26" as="geometry" />
        </mxCell>
      </root>
    </mxGraphModel>
  </diagram>
</mxfile>
